<svg width="28" height="28" viewBox="0 0 28 28" fill="none" xmlns="http://www.w3.org/2000/svg">
  <path fill-rule="evenodd" clip-rule="evenodd" d="M5.40625 5.40625C5.93475 4.87775 6.79001 4.87775 7.31851 5.40625L22.5938 20.6815C23.1223 21.21 23.1223 22.0652 22.5938 22.5938C22.0652 23.1223 21.21 23.1223 20.6815 22.5938L5.40625 7.31851C4.87775 6.79001 4.87775 5.93475 5.40625 5.40625Z" fill="white"/>
  <path fill-rule="evenodd" clip-rule="evenodd" d="M22.5938 5.40625C23.1223 5.93475 23.1223 6.79001 22.5938 7.31851L7.31851 22.5938C6.79001 23.1223 5.93475 23.1223 5.40625 22.5938C4.87775 22.0652 4.87775 21.21 5.40625 20.6815L20.6815 5.40625C21.21 4.87775 22.0652 4.87775 22.5938 5.40625Z" fill="white"/>
</svg> 