<svg width="28" height="28" viewBox="0 0 28 28" fill="none" xmlns="http://www.w3.org/2000/svg">
  <path fill-rule="evenodd" clip-rule="evenodd" d="M3.5 7C3.5 6.44772 3.94772 6 4.5 6H23.5C24.0523 6 24.5 6.44772 24.5 7C24.5 7.55228 24.0523 8 23.5 8H4.5C3.94772 8 3.5 7.55228 3.5 7Z" fill="white"/>
  <path fill-rule="evenodd" clip-rule="evenodd" d="M3.5 14C3.5 13.4477 3.94772 13 4.5 13H23.5C24.0523 13 24.5 13.4477 24.5 14C24.5 14.5523 24.0523 15 23.5 15H4.5C3.94772 15 3.5 14.5523 3.5 14Z" fill="white"/>
  <path fill-rule="evenodd" clip-rule="evenodd" d="M3.5 21C3.5 20.4477 3.94772 20 4.5 20H23.5C24.0523 20 24.5 20.4477 24.5 21C24.5 21.5523 24.0523 22 23.5 22H4.5C3.94772 22 3.5 21.5523 3.5 21Z" fill="white"/>
</svg> 